<mxfile host="app.diagrams.net" modified="2024-05-03T03:21:33.643Z" agent="Mozilla/5.0 (Windows NT 10.0; Win64; x64) AppleWebKit/537.36 (KHTML, like Gecko) Chrome/124.0.0.0 Safari/537.36" version="24.3.1" etag="y1rvG3hWj8niyFO3WOcJ" type="github">
  <diagram name="Halaman-1" id="UO08aiMQfUfcVX8Eq--H">
    <mxGraphModel>
      <root>
        <mxCell id="0" />
        <mxCell id="1" parent="0" />
      </root>
    </mxGraphModel>
  </diagram>
</mxfile>
